HIERARCHY
ROOT root
{
	OFFSET 0.000000 0.000000 0.000000
	CHANNELS 6 Xposition Yposition Zposition Zrotation Yrotation Xrotation
	JOINT lhip
	{
		OFFSET 0.058581 -0.082280 -0.017664
		CHANNELS 3 Zrotation Yrotation Xrotation
		JOINT lknee
		{
			OFFSET 0.043451 -0.386469 0.008037
			CHANNELS 3 Zrotation Yrotation Xrotation
			JOINT lankle
			{
				OFFSET -0.014790 -0.426874 -0.037428
				CHANNELS 3 Zrotation Yrotation Xrotation
				JOINT ltoe
				{
					OFFSET 0.041054 -0.060286 0.122042
					CHANNELS 3 Zrotation Yrotation Xrotation
					End Site
					{
						OFFSET 0.000000 0.000000 0.000000
					}
				}
			}
		}
	}
	JOINT rhip
	{
		OFFSET -0.060310 -0.090513 -0.013543
		CHANNELS 3 Zrotation Yrotation Xrotation
		JOINT rknee
		{
			OFFSET -0.043257 -0.383688 -0.004843
			CHANNELS 3 Zrotation Yrotation Xrotation
			JOINT rankle
			{
				OFFSET 0.019056 -0.420046 -0.034562
				CHANNELS 3 Zrotation Yrotation Xrotation
				JOINT rtoe
				{
					OFFSET -0.034840 -0.062106 0.130323
					CHANNELS 3 Zrotation Yrotation Xrotation
					End Site
					{
						OFFSET 0.000000 0.000000 0.000000
					}
				}
			}
		}
	}
	JOINT lowerback
	{
		OFFSET 0.004439 0.124404 -0.038385
		CHANNELS 3 Zrotation Yrotation Xrotation
		JOINT upperback
		{
			OFFSET 0.004488 0.137956 0.026820
			CHANNELS 3 Zrotation Yrotation Xrotation
			JOINT chest
			{
				OFFSET -0.002265 0.056032 0.002855
				CHANNELS 3 Zrotation Yrotation Xrotation
				JOINT lowerneck
				{
					OFFSET -0.013390 0.211636 -0.033468
					CHANNELS 3 Zrotation Yrotation Xrotation
					JOINT upperneck
					{
						OFFSET 0.010113 0.088937 0.050410
						CHANNELS 3 Zrotation Yrotation Xrotation
						End Site
						{
							OFFSET 0.000000 0.000000 0.000000
						}
					}
				}
				JOINT lclavicle
				{
					OFFSET 0.071702 0.114000 -0.018898
					CHANNELS 3 Zrotation Yrotation Xrotation
					JOINT lshoulder
					{
						OFFSET 0.122921 0.045205 -0.019046
						CHANNELS 3 Zrotation Yrotation Xrotation
						JOINT lelbow
						{
							OFFSET 0.255332 -0.015649 -0.022946
							CHANNELS 3 Zrotation Yrotation Xrotation
							JOINT lwrist
							{
								OFFSET 0.265709 0.012698 -0.007375
								CHANNELS 3 Zrotation Yrotation Xrotation
								End Site
								{
									OFFSET 0.000000 0.000000 0.000000
								}
							}
						}
					}
				}
				JOINT rclavicle
				{
					OFFSET -0.082954 0.112472 -0.023707
					CHANNELS 3 Zrotation Yrotation Xrotation
					JOINT rshoulder
					{
						OFFSET -0.113228 0.046853 -0.008472
						CHANNELS 3 Zrotation Yrotation Xrotation
						JOINT relbow
						{
							OFFSET -0.260127 -0.014369 -0.031269
							CHANNELS 3 Zrotation Yrotation Xrotation
							JOINT rwrist
							{
								OFFSET -0.269108 0.006794 -0.006027
								CHANNELS 3 Zrotation Yrotation Xrotation
								End Site
								{
									OFFSET 0.000000 0.000000 0.000000
								}
							}
						}
					}
				}
			}
		}
	}
}
MOTION
Frames: 10
Frame Time: 0.033333
-2.142699 0.779454 1.017874 54.232148 0.606041 89.579838 2.777009 5.417230 4.681425 -3.643523 -1.182931 5.832450 -0.109639 7.259898 -5.278355 0.000000 -0.000000 0.000000 2.191283 -11.031809 -5.899640 -4.373482 -24.897791 21.548045 -1.218224 -22.922267 1.142621 0.000000 -0.000000 0.000000 -0.360716 -0.266135 6.335634 1.930466 -1.817202 0.229925 3.008575 -0.350566 -2.143257 -1.631175 11.756167 -7.022069 -4.480480 16.342839 -5.522004 -28.225114 -7.607400 5.466354 -51.972522 -8.646143 11.713466 -5.568760 -26.018691 23.574915 3.325014 -5.951418 2.412555 25.771567 6.682832 8.366132 50.613051 1.528429 12.185002 -10.296944 23.598094 1.561879 -3.765341 4.348937 1.626388 
-2.145698 0.786964 1.017155 58.473269 0.187632 89.253082 1.888708 5.153749 5.085269 -3.007173 -3.860620 3.683900 0.091947 7.049002 -5.315319 0.000000 -0.000000 0.000000 0.708708 -11.262396 -8.596644 -5.569691 -26.108283 27.232149 -2.235300 -24.219909 1.811124 0.000000 -0.000000 0.000000 0.278688 -0.760725 6.916437 1.687668 -1.405466 0.115012 2.547702 -0.191612 -1.732250 -2.191571 10.729069 -7.259506 -4.569034 15.153816 -6.054871 -27.495352 -6.858414 5.217899 -51.489649 -8.158223 11.283454 -5.738218 -25.428947 23.973787 5.217477 -6.029341 2.278004 25.311235 6.530532 8.140409 50.749532 1.654152 11.943490 -10.139779 24.264602 1.127738 -5.224567 4.854999 1.829613 
-2.149248 0.794606 1.014428 63.013326 0.213898 88.344617 1.624077 4.635770 5.562955 -2.869446 -6.358391 2.859342 0.936350 7.209865 -6.991260 0.000000 -0.000000 0.000000 -0.627097 -10.605803 -10.572416 -5.634823 -25.144868 32.996550 -3.607300 -23.768250 1.972933 0.000000 -0.000000 0.000000 1.162147 -1.320481 7.830328 1.722564 -1.332855 0.474569 2.336134 -0.128877 -1.556053 -2.751010 9.045241 -6.614591 -4.927308 13.521263 -7.033245 -27.111516 -7.187513 5.533558 -50.732068 -7.502495 10.088958 -4.377254 -24.401185 21.882937 4.420974 -5.642449 1.980789 24.959090 7.080919 8.188939 50.126213 1.017088 11.388872 -10.699344 26.375469 0.449408 -5.113725 4.875828 1.089185 
-2.154321 0.801211 1.007609 66.494103 0.294836 87.299835 1.334239 4.267052 6.238598 -2.425685 -9.657180 2.247437 1.842070 7.929755 -10.021553 0.000000 -0.000000 0.000000 -1.529183 -8.370001 -12.548298 -5.279458 -21.753686 38.691583 -3.120584 -21.884622 -2.595414 0.000000 -0.000000 0.000000 1.611515 -1.881284 9.554104 1.960589 -0.635817 0.347979 2.324000 -0.006804 -1.373965 -2.917397 8.101075 -6.395889 -5.423313 11.412514 -7.747410 -26.991296 -7.190469 5.102535 -49.616488 -6.550982 9.305028 -3.188066 -24.115612 19.826426 5.831236 -5.640726 2.886455 24.681047 7.430981 7.851521 49.010965 0.515305 11.056750 -10.866854 28.994019 0.227328 -6.577698 5.531875 0.271338 
-2.159364 0.805348 0.999059 70.103721 -0.033036 86.840643 0.915895 3.567491 4.869266 -2.780522 -12.710410 4.196683 2.737787 8.322475 -11.864286 0.000000 -0.000000 0.000000 -2.044357 -6.032988 -14.074572 -4.067650 -16.150010 40.486786 -2.143650 -20.306556 -9.238785 0.000000 -0.000000 0.000000 1.212474 -1.852400 10.479395 2.414696 -0.403354 0.554060 2.246845 0.116608 -1.010621 -2.635989 7.746494 -6.746220 -5.798560 9.108847 -8.627438 -27.527596 -7.231085 4.435718 -47.263937 -6.215573 9.090478 -2.670791 -22.883890 17.309990 7.952599 -5.865167 3.106695 25.998726 7.413609 7.433343 46.368448 0.238369 11.331266 -10.755451 30.975606 -0.292841 -8.493069 6.496994 -0.523261 
-2.163736 0.806242 0.995471 73.546787 -0.724360 86.714968 0.185625 1.870160 2.520640 -3.813175 -14.623463 7.647107 2.484187 8.815986 -13.604587 0.000000 -0.000000 0.000000 -2.200006 -2.861812 -13.999008 -2.470436 -8.789106 37.291440 -0.540684 -17.709636 -14.260806 0.000000 -0.000000 0.000000 0.718749 -1.571755 10.304820 2.539011 -0.417377 0.900766 1.701952 0.265374 -0.458766 -1.846763 7.712695 -7.096202 -5.831162 6.226724 -8.712247 -28.399616 -6.951666 3.736775 -44.289030 -6.386067 8.769991 -1.892154 -20.002033 13.664817 11.150991 -6.977322 3.408075 27.850278 7.516491 7.349654 44.426665 1.205480 12.032920 -10.207204 29.190409 -1.097653 -13.972335 7.635601 -1.983108 
-2.165942 0.804938 0.996608 77.273982 -1.291961 86.040444 -0.583038 0.151465 1.724021 -4.120041 -16.235039 9.859981 2.155600 8.923169 -14.625306 0.000000 -0.000000 0.000000 -1.750022 0.702070 -11.116868 -1.484926 -0.333913 30.432113 1.122652 -13.861873 -17.044569 0.000000 -0.000000 0.000000 0.414673 -1.375541 9.780376 2.443404 -0.891648 1.611030 1.309943 0.511345 -0.216154 -1.541135 6.873411 -5.921225 -5.120413 3.970018 -8.784927 -27.584179 -6.437027 3.330259 -44.368907 -6.189447 8.311047 0.701144 -17.528433 10.875075 12.057027 -6.373980 3.560585 27.500298 7.554724 6.448634 45.705942 1.880918 12.277093 -10.121024 26.141027 0.342021 -13.932778 6.519373 -1.303628 
-2.165200 0.801786 0.997420 81.037875 -1.635529 85.534124 -1.254341 -1.092784 2.114860 -3.375000 -17.829080 9.840570 2.093607 8.978057 -15.000906 0.000000 -0.000000 0.000000 -1.095003 3.599236 -7.856771 -0.937246 6.378558 24.138800 3.032123 -10.232950 -17.449667 0.000000 -0.000000 0.000000 0.103201 -1.176120 8.546543 2.511176 -1.167433 2.110120 0.903410 0.714626 0.157646 -1.107445 5.276242 -4.213526 -4.317579 1.450760 -8.323719 -26.520801 -5.236235 2.490396 -45.271446 -6.411169 8.007744 3.229641 -15.262786 9.498154 10.473229 -4.436269 4.110876 26.851066 7.211329 5.774791 47.350395 1.825658 13.197790 -9.683216 24.181926 1.818435 -12.672919 4.423661 -1.478371 
-2.164552 0.795754 0.996894 84.946186 -1.613952 84.950056 -1.318454 -2.238319 2.182562 -2.782755 -19.394530 10.587949 2.021304 9.009137 -15.531265 0.000000 -0.000000 0.000000 -0.119404 3.874367 -5.238764 -1.503538 6.282305 21.306274 2.626054 -10.833444 -17.626322 0.000000 -0.000000 0.000000 -0.346066 -0.825466 8.429848 2.449911 -1.203999 1.942161 0.950163 0.687071 0.332404 -0.937667 3.252348 -4.011761 -3.279130 -0.777763 -7.878035 -26.206660 -3.721617 2.090998 -44.952212 -6.157019 7.130796 4.605955 -16.413336 7.293983 7.904577 -4.044199 2.495097 26.963488 6.460328 4.978736 47.715049 0.855483 13.792636 -8.555593 25.034475 5.009594 -8.020867 4.843535 -0.272573 
-2.164579 0.787913 0.995974 88.198327 -1.260639 84.596366 -0.473625 -3.143325 1.565147 -2.916284 -20.378818 11.682194 1.544499 8.165313 -14.829241 0.000000 -0.000000 0.000000 0.932447 2.192672 -2.545329 -2.723022 3.899170 17.333704 1.615723 -11.536585 -16.573172 0.000000 -0.000000 0.000000 -0.565523 0.070593 8.708674 2.120139 -1.153181 1.394478 1.069367 0.826858 0.491393 -0.882494 1.098492 -3.303473 -1.928716 -2.942133 -8.440330 -26.167341 -2.525268 1.905366 -43.825637 -5.908438 6.722890 3.807389 -18.417469 5.131962 11.440108 -4.689239 -0.278547 27.115689 5.972112 4.678924 48.207725 -0.216732 14.711264 -6.404296 26.426071 7.418999 -11.265899 5.671675 -0.535480 
